<?xml version="1.0" encoding="utf-8"?>
<!-- Generator: Adobe Illustrator 25.2.0, SVG Export Plug-In . SVG Version: 6.00 Build 0)  -->
<svg version="1.1" id="Layer_1" xmlns:v="https://vecta.io/nano"
	 xmlns="http://www.w3.org/2000/svg" xmlns:xlink="http://www.w3.org/1999/xlink" x="0px" y="0px" viewBox="0 0 365.2 69.6"
	 style="enable-background:new 0 0 365.2 69.6;" xml:space="preserve">
<style type="text/css">
	.st0{fill-rule:evenodd;clip-rule:evenodd;fill:#FFF;}
	.st1{fill:#FFF;}
</style>
<path class="st0" d="M75.8,27.1c0-5.1-3.8-8.2-9.6-8.2h-9.7v25.8h2.9v-9.1h6.3C71.2,35.6,75.8,32.7,75.8,27.1 M72.9,27.2
	c0,3.4-2.8,5.7-7.1,5.7h-6.4V21.6h6.5C70.1,21.6,72.9,23.5,72.9,27.2 M109.9,44.7h3.6l-7.9-10.5c4.1-0.7,7-3.2,7-7.5
	c0-4.6-3.7-7.7-9.3-7.7H92.2v25.8h2.9v-10h7.4L109.9,44.7L109.9,44.7z M109.6,26.7c0,3.3-2.8,5.3-6.6,5.3h-7.9V21.6h7.9
	C107.2,21.6,109.6,23.5,109.6,26.7 M148.5,18.9v2.6h-15.8v8.8h14.1V33h-14.1v9h15.9v2.7h-18.8V18.9L148.5,18.9z M177.9,37.6
	l9.4-13.8v20.9h2.9V18.9h-2.9L177.9,33l-9.4-14.1h-3v25.8h2.9V23.8l9.4,13.8H177.9z M208.8,18.9h2.9v25.8h-2.9V18.9z M270.4,44.7
	V18.9h3V42h14.5v2.7L270.4,44.7z M328.3,44.7l-11.7-26h-2.7l-11.7,26h3l3-6.8h14l3,6.8H328.3L328.3,44.7z M315.1,22.1l5.9,13.1
	h-11.7L315.1,22.1L315.1,22.1z M344.4,18.9h11c5.1,0,8.4,2.5,8.4,6.4c0,3.4-2.1,5.1-4.1,6c3,0.9,5.5,2.7,5.5,6.3
	c0,4.5-3.7,7.1-9.3,7.1h-11.5L344.4,18.9L344.4,18.9z M347.3,30.4h7.6c3.5,0,5.9-1.6,5.9-4.6c0-2.6-2-4.2-5.7-4.2h-7.9v8.8H347.3z
	 M347.3,42.1h8.6c3.9,0,6.3-1.7,6.3-4.6c0-2.8-2.4-4.5-6.8-4.5h-8.1V42.1z M254.3,44.7l-11.7-26h-2.7l-11.7,26h3l3-6.8h14l3,6.8
	H254.3L254.3,44.7z M241.2,22.1l5.9,13.1h-11.7L241.2,22.1L241.2,22.1z"/>
<path class="st1" d="M0,69.6l5.7-3.3V15.2L0,18.5V69.6z M13.1,54.4l5.7-3.3V0l-5.7,3.3V54.4z M26.3,18.5v19.6l5.7-3.2V15.2
	L26.3,18.5z"/>
</svg>
